<?xml version="1.0" encoding="utf-8"?>
<!-- Generator: Adobe Illustrator 18.0.0, SVG Export Plug-In . SVG Version: 6.00 Build 0)  -->
<!DOCTYPE svg PUBLIC "-//W3C//DTD SVG 1.1//EN" "http://www.w3.org/Graphics/SVG/1.1/DTD/svg11.dtd">
<svg version="1.1" id="Layer_1" xmlns="http://www.w3.org/2000/svg" xmlns:xlink="http://www.w3.org/1999/xlink" x="0px" y="0px"
	 viewBox="171.4 393.6 254.1 54.6" enable-background="new 171.4 393.6 254.1 54.6" xml:space="preserve">
<g>
	<g>
		<g>
			<path fill="#FFFFFF" d="M283.9,393.7h4.5c1,0,1.8,0.2,2.5,0.5c0.7,0.3,1.3,0.7,1.7,1.2c0.4,0.5,0.8,1.1,0.9,1.7
				c0.2,0.7,0.3,1.3,0.3,2v0.8c0,0.6,0,1.1-0.1,1.5c-0.1,0.4-0.2,0.8-0.4,1.1c-0.2,0.3-0.4,0.6-0.7,0.8c-0.3,0.2-0.6,0.4-0.9,0.6
				c0.7,0.3,1.2,0.8,1.6,1.5c0.3,0.7,0.5,1.6,0.5,2.7v1.2c0,1.9-0.5,3.3-1.4,4.3s-2.4,1.5-4.4,1.5h-4.2v-21.4H283.9z M287,402.5h1.4
				c1,0,1.7-0.3,2.1-0.8c0.3-0.5,0.5-1.3,0.5-2.2c0-1-0.2-1.7-0.6-2.2c-0.4-0.5-1.1-0.7-2.1-0.7H287V402.5z M287,412h1.3
				c0.6,0,1.1-0.1,1.5-0.3c0.4-0.2,0.6-0.4,0.8-0.8c0.2-0.3,0.3-0.7,0.3-1.1c0-0.4,0.1-0.9,0.1-1.4c0-0.5,0-1-0.1-1.4
				c-0.1-0.4-0.2-0.7-0.4-1c-0.2-0.3-0.5-0.5-0.8-0.6s-0.8-0.2-1.4-0.2H287V412z"/>
			<path fill="#FFFFFF" d="M306.7,398.8c0-0.9,0.1-1.6,0.4-2.3c0.3-0.7,0.7-1.2,1.2-1.6c0.5-0.4,1-0.8,1.6-1
				c0.6-0.2,1.2-0.3,1.8-0.3c0.6,0,1.2,0.1,1.8,0.3c0.6,0.2,1.2,0.5,1.7,1c0.5,0.4,0.9,1,1.2,1.6c0.3,0.7,0.5,1.4,0.5,2.3V410
				c0,0.9-0.1,1.6-0.5,2.3c-0.3,0.7-0.7,1.2-1.2,1.6c-0.5,0.4-1,0.8-1.7,1c-0.6,0.2-1.2,0.3-1.8,0.3c-0.6,0-1.2-0.1-1.8-0.3
				c-0.6-0.2-1.2-0.5-1.6-1c-0.5-0.4-0.9-1-1.2-1.6c-0.3-0.6-0.4-1.4-0.4-2.3V398.8z M309.8,410c0,0.7,0.2,1.3,0.6,1.6
				c0.4,0.4,0.9,0.5,1.5,0.5c0.6,0,1-0.2,1.5-0.5c0.4-0.3,0.6-0.9,0.6-1.6v-11.3c0-0.7-0.2-1.3-0.6-1.6c-0.4-0.3-0.9-0.5-1.5-0.5
				c-0.6,0-1,0.2-1.5,0.5c-0.4,0.4-0.6,0.9-0.6,1.6V410z"/>
			<path fill="#FFFFFF" d="M329.9,393.7h4.5c1.7,0,3.1,0.5,4,1.5s1.4,2.3,1.4,4.1v10c0,2-0.5,3.5-1.5,4.4c-1,1-2.4,1.4-4.2,1.4h-4.3
				v-21.4H329.9z M333,412.2h1.4c0.9,0,1.5-0.2,1.8-0.6c0.4-0.4,0.5-1.1,0.5-2v-10.3c0-0.8-0.2-1.5-0.5-1.9c-0.3-0.5-1-0.7-1.9-0.7
				H333V412.2z"/>
			<path fill="#FFFFFF" d="M355.2,406l-4.2-12.3h3.2l2.5,8.5h0.1l2.5-8.5h3.2l-4.2,12.3v9h-3.1V406z"/>
			<path fill="#FFFFFF" d="M379.2,393.7h9.1v2.9h-6.1v6.5h5.3v2.9h-5.3v9.1h-3.1v-21.4H379.2z"/>
			<path fill="#FFFFFF" d="M400.6,393.7h3.1v21.4h-3.1V393.7z"/>
			<path fill="#FFFFFF" d="M418.8,396.6h-3.5v-2.9h10.1v2.9h-3.5v18.5h-3.1V396.6z"/>
			<path fill="#FFFFFF" d="M286.2,434.5h-2.6v-2.1h7.4v2.1h-2.6v13.6h-2.2L286.2,434.5L286.2,434.5z"/>
			<path fill="#FFFFFF" d="M303.9,432.4h3.6c2.6,0,4,1.5,4,4.6c0,0.9-0.1,1.7-0.4,2.3c-0.3,0.6-0.8,1.2-1.5,1.6l2.4,7.1h-2.4
				l-2.1-6.7h-1.3v6.7H304L303.9,432.4L303.9,432.4z M306.1,439.4h1.3c0.4,0,0.7-0.1,0.9-0.2c0.2-0.1,0.4-0.3,0.5-0.5
				c0.1-0.2,0.2-0.5,0.3-0.8c0-0.3,0.1-0.6,0.1-1c0-0.4,0-0.7-0.1-1c0-0.3-0.1-0.6-0.3-0.8c-0.1-0.2-0.3-0.4-0.6-0.5
				c-0.2-0.1-0.6-0.2-1-0.2H306v5H306.1z"/>
			<path fill="#FFFFFF" d="M327.2,432.4h1.9l3.5,15.7h-2.2l-0.7-3.4h-3.1l-0.7,3.4h-2.2L327.2,432.4z M328.1,436.9L328.1,436.9
				l-1.1,5.7h2.2L328.1,436.9z"/>
			<path fill="#FFFFFF" d="M344.3,432.4h2.2v15.7h-2.2V432.4z"/>
			<path fill="#FFFFFF" d="M360.1,432.4h2.2l3.4,9.4l0,0v-9.4h2.2v15.7h-2.1l-3.4-9.4l0,0v9.4h-2.2v-15.7H360.1z"/>
			<path fill="#FFFFFF" d="M381.4,432.4h2.2v15.7h-2.2V432.4z"/>
			<path fill="#FFFFFF" d="M397.2,432.4h2.2l3.4,9.4l0,0v-9.4h2.2v15.7h-2.1l-3.4-9.4l0,0v9.4h-2.2v-15.7H397.2z"/>
			<path fill="#FFFFFF" d="M417.9,436.1c0-0.6,0.1-1.2,0.3-1.7c0.2-0.5,0.5-0.9,0.9-1.2c0.4-0.3,0.8-0.6,1.2-0.7
				c0.4-0.2,0.9-0.2,1.4-0.2c0.5,0,0.9,0.1,1.4,0.2c0.4,0.2,0.9,0.4,1.2,0.7c0.4,0.3,0.6,0.7,0.9,1.2c0.2,0.5,0.3,1,0.3,1.7v0.8
				h-2.2v-0.8c0-0.5-0.2-0.9-0.5-1.2s-0.7-0.4-1.1-0.4c-0.4,0-0.8,0.1-1.1,0.4c-0.3,0.3-0.5,0.7-0.5,1.2v8.3c0,0.5,0.2,0.9,0.5,1.2
				c0.3,0.3,0.7,0.4,1.1,0.4c0.4,0,0.8-0.1,1.1-0.4c0.3-0.3,0.5-0.7,0.5-1.2v-2.9h-1.8v-2h4v4.9c0,0.6-0.1,1.2-0.3,1.7
				c-0.2,0.5-0.5,0.9-0.9,1.2c-0.4,0.3-0.8,0.6-1.2,0.7c-0.4,0.2-0.9,0.2-1.4,0.2c-0.5,0-0.9-0.1-1.4-0.2c-0.4-0.2-0.9-0.4-1.2-0.7
				c-0.4-0.3-0.6-0.7-0.9-1.2c-0.2-0.5-0.3-1-0.3-1.7V436.1z"/>
		</g>
	</g>
	<rect x="283.4" y="423.3" fill="#FFFFFF" width="141.5" height="2"/>
	<g>
		
			<linearGradient id="SVGID_1_" gradientUnits="userSpaceOnUse" x1="187.35" y1="394.3762" x2="187.35" y2="451.426" gradientTransform="matrix(1 0 0 -1 0 841.8709)">
			<stop  offset="0" style="stop-color:#8ACFB7"/>
			<stop  offset="1" style="stop-color:#29ABE2"/>
		</linearGradient>
		<path fill="url(#SVGID_1_)" d="M203.3,409.8L203.3,409.8c-0.1-8.7-7.4-16-16-16c-4.3,0-8.3,1.6-11.2,4.6c-3,3-4.7,7.1-4.7,11.5
			v0.1l0,0v37.6h1.9V410l0,0v-0.1c0-7.9,6.3-14.2,14-14.2c7.6,0,14.1,6.5,14.1,14.3v0.1l0,0c0,3.8-1.6,7.2-4.1,9.6
			c-0.5-0.4-1.1-0.8-1.6-1.1c2.2-2.2,3.7-5.2,3.7-8.6l0,0v-0.1c0-3.2-1.3-6.3-3.6-8.6s-5.4-3.6-8.6-3.6c-3.2,0-6.2,1.3-8.5,3.7
			c-2.2,2.3-3.4,5.3-3.5,8.5l0,0v37.8h1.9v-37.5l0,0V410c0-2.7,1.1-5.4,3-7.4s4.5-3.2,7.2-3.2s5.3,1.1,7.2,3.1s3,4.6,3,7.3v0.1l0,0
			c0,3-1.4,5.8-3.6,7.6c-0.8-0.3-1.5-0.6-2.4-0.9c2.3-1.5,3.8-4,3.8-6.9l0,0c0-4.5-3.6-8.2-8.1-8.2c-4.4,0-8.1,3.6-8.1,8.2l0,0v37.8
			h1.9v-37.6l0,0v-0.1c0-3.5,2.8-6.4,6.3-6.4c3.4,0,6.2,2.8,6.2,6.3v0.1l0,0c-0.1,3.4-2.9,6.2-6.3,6.2h-0.1v1.9h0.1h0.1l0,0h0.1
			c1.6,0,3.2,0.3,4.7,0.8c-1.4,0.8-3.1,1.2-4.8,1.2h-0.1l0,0v1.9l0,0h0.1c1.7,0,3.2,0.4,4.7,1.1c-1.4,0.5-3,0.8-4.6,0.8h-0.1l0,0
			h-0.1h-0.1v1.9h0.1c3.5,0,6.3,2.8,6.3,6.3s-2.8,6.3-6.3,6.3h-0.1v1.9h0.1c4.5,0,8.2-3.7,8.2-8.2c0-2.9-1.5-5.4-3.8-6.9
			c0.8-0.2,1.6-0.5,2.3-0.8c0.2,0.2,0.4,0.4,0.6,0.6c1.9,1.9,3,4.4,3,7.1s-1.1,5.3-3.1,7.2c-2,1.9-4.6,3-7.3,3H187v1.9h0.1
			c3.2,0,6.3-1.3,8.6-3.5c2.4-2.3,3.6-5.3,3.6-8.5c0-3.2-1.3-6.2-3.5-8.5c-0.1-0.1-0.1-0.1-0.2-0.2c0.6-0.4,1.1-0.7,1.7-1.2
			c2.5,2.5,4.1,6,4.1,9.8c0,3.7-1.5,7.2-4.2,9.9c-2.7,2.6-6.3,4.1-10,4.1h-0.1v1.9h0.1c4.2,0,8.3-1.6,11.3-4.6c3.1-3,4.8-7,4.8-11.2
			c0-4.3-1.7-8.2-4.5-11.1C201.6,418,203.3,414.1,203.3,409.8z M196,420.9c-0.6,0.4-1.2,0.8-1.8,1.2c-0.7-0.4-1.4-0.8-2.1-1.1
			c0.8-0.3,1.5-0.7,2.2-1.2C194.8,420.1,195.4,420.4,196,420.9z"/>
		
			<linearGradient id="SVGID_2_" gradientUnits="userSpaceOnUse" x1="220.05" y1="394.336" x2="220.05" y2="451.3726" gradientTransform="matrix(1 0 0 -1 0 841.8709)">
			<stop  offset="0" style="stop-color:#8ACFB7"/>
			<stop  offset="1" style="stop-color:#29ABE2"/>
		</linearGradient>
		<path fill="url(#SVGID_2_)" d="M233,395.6v-1.9l-9.8,0.1c-4.3,0-8.3,1.5-11.3,4.5c-3.1,3-4.8,7.1-4.8,11.5v0.1l0,0v22.5l0,0v15.1
			h1.9v-15.1l0,0v-0.1c0-2.6,0.7-5.1,2-7.3v6.4v16h1.9v-15l0,0v-0.1c0-2.3,0.8-4.4,2-6.2v5.2v16h1.9v-15.1l0,0v-0.1
			c0-3.4,2.8-6.3,6.2-6.4l0,0h10v-1.9h-9.8l0,0c-2.6,0-4.9,1.2-6.4,3.1V424c1.7-1.4,3.9-2.3,6.2-2.4l0,0h10v-1.9h-9.8l0,0
			c-2.3,0-4.5,0.7-6.4,1.9v-2.3c1.9-1,4-1.5,6.2-1.6l0,0h10v-1.9h-9.8l0,0c-2.2,0-4.4,0.5-6.4,1.3v-7.6l0,0v-0.1
			c0-3.4,2.8-6.3,6.2-6.4l0,0h10v-1.9h-9.8l0,0c-4.5,0-8.2,3.7-8.3,8.2l0,0v8.8c-0.7,0.4-1.4,0.9-2,1.4v-9.9l0,0v0.4
			c0-5.7,4.6-10.4,10.1-10.5l0,0h10v-1.9h-9.8l0,0c-6.5,0-12,5.6-12.2,12.2l0,0v12c-0.8,0.9-1.5,1.9-2,2.9v-14.8l0,0v-0.1
			c0-3.8,1.5-7.4,4.2-10.1c2.6-2.6,6.1-4.1,9.8-4.2l0,0h10V395.6z M212.9,422.6c0.1-0.1,0.2-0.2,0.3-0.3c0.5-0.5,1.1-1,1.7-1.4v2.7
			c-0.8,0.7-1.5,1.6-2,2.5V422.6z"/>
		
			<linearGradient id="SVGID_3_" gradientUnits="userSpaceOnUse" x1="254.05" y1="394.336" x2="254.05" y2="451.3726" gradientTransform="matrix(1 0 0 -1 0 841.8709)">
			<stop  offset="0" style="stop-color:#8ACFB7"/>
			<stop  offset="1" style="stop-color:#29ABE2"/>
		</linearGradient>
		<path fill="url(#SVGID_3_)" d="M263.1,395.6h8.3v-1.9h-34.9v0.1v0.1v1.6v0.1v0.1H256c-1,0.5-2,1.2-2.9,2h-16.6v0.1v0.1v1.6v0.1
			v0.1h14.8c-0.6,0.7-1.1,1.4-1.5,2.1h-13.3v0.1v0.1v1.6v0.1v0.1h12.3c-0.8,2-1.3,4.1-1.3,6.4v0.1l0,0v37.6h1.9v-37.6l0,0v-0.1
			c0-2.2,0.5-4.4,1.5-6.4h2.4c-1.1,1.8-1.8,4-1.9,6.3l0,0v37.8h1.9v-37.5l0,0V410c0-2.4,0.9-4.7,2.3-6.5h2.9
			c-1.8,1.5-3.1,3.8-3.1,6.3l0,0v37.8h1.9V410l0,0v-0.1c0-3.3,2.7-6.2,6.1-6.4h0.2h0.1h7.9v-1.9c0,0-8,0-8.1,0h-5.8
			c1.6-1.2,3.5-2,5.5-2.1h8.3v-1.9c0,0-8.2,0-8.4,0h-6.5C258.5,396.4,260.7,395.7,263.1,395.6z M254,399.5h3.3
			c-0.9,0.6-1.8,1.3-2.5,2.1h-2.7c0.5-0.7,1-1.3,1.6-1.8C253.8,399.7,253.9,399.6,254,399.5z"/>
	</g>
</g>
</svg>
